<svg width="30" height="30" viewBox="0 0 30 30" fill="none" xmlns="http://www.w3.org/2000/svg">
<g clip-path="url(#clip0_3_12058)">
<path d="M15 30C6.72875 30 0 23.2712 0 15C0 6.72875 6.72875 0 15 0C23.2712 0 30 6.72875 30 15C30 23.2712 23.2712 30 15 30ZM15 1.25C7.41875 1.25 1.25 7.41875 1.25 15C1.25 22.5812 7.41875 28.75 15 28.75C22.5812 28.75 28.75 22.5812 28.75 15C28.75 7.41875 22.5812 1.25 15 1.25Z" fill="#FCB427"/>
<path d="M21.8745 22.5C21.7145 22.5 21.5545 22.4388 21.432 22.3175L14.557 15.4425C14.4408 15.325 14.3745 15.1663 14.3745 15V5.625C14.3745 5.28 14.6545 5 14.9995 5C15.3445 5 15.6245 5.28 15.6245 5.625V14.7413L22.317 21.4338C22.5608 21.6775 22.5608 22.0738 22.317 22.3175C22.1945 22.4388 22.0345 22.5 21.8745 22.5Z" fill="#FCB427"/>
</g>
<defs>
<clipPath id="clip0_3_12058">
<rect width="30" height="30" fill="white"/>
</clipPath>
</defs>
</svg>
