<svg width="30" height="24" viewBox="0 0 30 24" fill="none" xmlns="http://www.w3.org/2000/svg">
<path d="M27.5 0.998535H2.50002C1.12119 0.998535 0 2.14294 0 3.55031V21.4126C0 22.82 1.12119 23.9644 2.50002 23.9644H27.5C28.8788 23.9644 30 22.82 30 21.4126V3.55031C30 2.14294 28.8788 0.998535 27.5 0.998535ZM2.50002 2.27439H27.5C27.5921 2.27439 27.6733 2.30866 27.7597 2.32804C25.5953 4.34993 18.4185 11.0514 15.907 13.3611C15.7105 13.5418 15.3938 13.7573 15.0001 13.7573C14.6064 13.7573 14.2896 13.5418 14.0924 13.3605C11.5812 11.0512 4.40396 4.34933 2.23992 2.32816C2.32652 2.30878 2.40785 2.27439 2.50002 2.27439ZM1.24998 21.4126V3.55031C1.24998 3.42532 1.28689 3.31192 1.31994 3.19769C2.9765 4.74525 7.98416 9.42119 11.2312 12.435C7.99471 15.2727 2.98576 20.1199 1.31602 21.7451C1.28654 21.6366 1.24998 21.5305 1.24998 21.4126ZM27.5 22.6885H2.50002C2.40018 22.6885 2.31141 22.653 2.21818 22.6302C3.94359 20.9513 8.98441 16.0763 12.164 13.2998C12.5785 13.6836 12.9571 14.0336 13.2556 14.3081C13.7708 14.7828 14.3737 15.0332 15 15.0332C15.6263 15.0332 16.2292 14.7828 16.7438 14.3087C17.0423 14.034 17.4213 13.6838 17.836 13.2998C21.0158 16.076 26.0559 20.9507 27.7818 22.6302C27.6886 22.653 27.5999 22.6885 27.5 22.6885ZM28.75 21.4126C28.75 21.5305 28.7135 21.6366 28.684 21.7451C27.0137 20.1191 22.0053 15.2724 18.7689 12.4351C22.016 9.42125 27.0229 4.74573 28.6801 3.19757C28.7131 3.3118 28.75 3.42526 28.75 3.55025V21.4126Z" fill="#FCB427"/>
</svg>
