<svg width="30" height="30" viewBox="0 0 30 30" fill="none" xmlns="http://www.w3.org/2000/svg">
<path d="M21.25 11H8.75C8.474 11 8.25 11.2235 8.25 11.5C8.25 11.7765 8.474 12 8.75 12H21.25C21.526 12 21.75 11.7765 21.75 11.5C21.75 11.2235 21.526 11 21.25 11Z" fill="#FCB427"/>
<path d="M8.75 8H13.75C14.026 8 14.25 7.7765 14.25 7.5C14.25 7.2235 14.026 7 13.75 7H8.75C8.474 7 8.25 7.2235 8.25 7.5C8.25 7.7765 8.474 8 8.75 8Z" fill="#FCB427"/>
<path d="M21.25 15H8.75C8.474 15 8.25 15.2235 8.25 15.5C8.25 15.7765 8.474 16 8.75 16H21.25C21.526 16 21.75 15.7765 21.75 15.5C21.75 15.2235 21.526 15 21.25 15Z" fill="#FCB427"/>
<path d="M21.25 19H8.75C8.474 19 8.25 19.2235 8.25 19.5C8.25 19.7765 8.474 20 8.75 20H21.25C21.526 20 21.75 19.7765 21.75 19.5C21.75 19.2235 21.526 19 21.25 19Z" fill="#FCB427"/>
<path d="M21.25 23H8.75C8.474 23 8.25 23.2235 8.25 23.5C8.25 23.7765 8.474 24 8.75 24H21.25C21.526 24 21.75 23.7765 21.75 23.5C21.75 23.2235 21.526 23 21.25 23Z" fill="#FCB427"/>
<path d="M19.457 0H3.25V30H26.75V7.293L19.457 0ZM19.75 1.707L25.043 7H19.75V1.707ZM4.25 29V1H18.75V8H25.75V29H4.25Z" fill="#FCB427"/>
</svg>
