<svg width="133" height="77" viewBox="0 0 133 77" fill="none" xmlns="http://www.w3.org/2000/svg">
<rect width="132.904" height="77" fill="#2D2D2D"/>
<path d="M5.64335 56.061L5.20462 57.7026L16.6829 57.6924C17.0911 57.6924 17.2951 57.8453 17.2951 58.1512C17.2951 58.226 17.2815 58.311 17.2543 58.4062L16.9686 59.4258C16.8462 59.9016 16.5333 60.1396 16.0299 60.1396H4.80671C3.31708 60.1396 2.57227 59.5618 2.57227 58.4062C2.57227 58.1071 2.62328 57.7672 2.72531 57.3865L4.0925 52.2882C4.58224 50.4529 5.76579 49.5352 7.64313 49.5352H18.8868C19.2881 49.5352 19.4887 49.6847 19.4887 49.9838C19.4887 50.0586 19.4751 50.1436 19.4479 50.2387L19.1622 51.2686C19.033 51.7444 18.7167 51.9823 18.2134 51.9823H6.72486L6.28614 53.6138H17.7746C18.1828 53.6138 18.3868 53.7667 18.3868 54.0726C18.3868 54.1474 18.3732 54.2324 18.346 54.3275L18.0807 55.3472C17.9515 55.823 17.6318 56.061 17.1217 56.061H5.64335Z" fill="white"/>
<path d="M22.0599 51.9721L21.611 53.6138H31.2935L31.7425 51.9823L22.0599 51.9721ZM20.9682 56.061L20.5192 57.6924H30.2018L30.6508 56.061H20.9682ZM19.9683 50.2489C20.0907 49.7731 20.4104 49.5352 20.9274 49.5352H32.1404C33.6232 49.5352 34.3646 50.113 34.3646 51.2686C34.3646 51.5677 34.3136 51.9076 34.2116 52.2882L34.0789 52.7981C33.7797 53.8925 33.3307 54.5723 32.7322 54.8374C33.011 55.0005 33.1505 55.3132 33.1505 55.7755C33.1505 56.0813 33.0927 56.4484 32.977 56.8767L32.8342 57.3865C32.3444 59.2219 31.1643 60.1396 29.2938 60.1396H18.0807C17.6726 60.1328 17.4686 59.9764 17.4686 59.6705C17.4686 59.5957 17.4788 59.5142 17.4992 59.4258L19.9683 50.2489Z" fill="white"/>
<path d="M37.3643 51.9721L36.6399 54.6334H46.3225L47.0469 51.9823L37.3643 51.9721ZM35.2727 50.2489C35.4019 49.7731 35.7182 49.5352 36.2216 49.5352H47.4448C48.9276 49.5352 49.669 50.113 49.669 51.2686C49.669 51.5677 49.618 51.9076 49.516 52.2882L48.9548 54.3275C48.4651 56.1629 47.285 57.0806 45.4144 57.0806H35.9869L35.3543 59.4258C35.2319 59.9016 34.9156 60.1396 34.4054 60.1396H33.3851C32.977 60.1396 32.773 59.9832 32.773 59.6705C32.773 59.6025 32.7832 59.521 32.8036 59.4258L35.2727 50.2489Z" fill="white"/>
<path d="M52.6687 51.9721L51.1383 57.6924L60.8209 57.7026L62.3615 51.9823L52.6687 51.9721ZM62.7492 49.5352C64.232 49.5352 64.9735 50.113 64.9735 51.2686C64.9735 51.5677 64.9224 51.9076 64.8204 52.2882L63.4532 57.3865C62.9635 59.2219 61.7833 60.1396 59.9128 60.1396H50.7301C49.2473 60.1396 48.5059 59.5618 48.5059 58.4062C48.5059 58.1071 48.5569 57.7672 48.659 57.3865L50.0261 52.2882C50.5159 50.4529 51.6994 49.5352 53.5768 49.5352H62.7492Z" fill="white"/>
<path d="M66.8202 56.2343L65.9631 59.4258C65.8407 59.9016 65.5244 60.1396 65.0143 60.1396H63.994C63.5859 60.1396 63.3818 59.9832 63.3818 59.6705C63.3818 59.6025 63.392 59.521 63.4124 59.4258L65.8713 50.2591C66.0074 49.7833 66.327 49.5454 66.8304 49.5454H67.8507C68.2588 49.5454 68.4629 49.6983 68.4629 50.0042C68.4629 50.079 68.4493 50.164 68.422 50.2591L67.5752 53.4404C67.5344 53.4744 67.514 53.5016 67.514 53.522V53.5322C67.514 53.539 67.5174 53.5424 67.5242 53.5424C67.5854 53.5424 67.7316 53.4914 67.9629 53.3895L76.4518 49.5352H81.4512L69.9525 54.8374L78.6148 60.1396H73.6153L67.1875 56.2853C67.0106 56.1833 66.8916 56.1323 66.8304 56.1323C66.8168 56.1323 66.8066 56.1391 66.7998 56.1527C66.7998 56.1731 66.8066 56.2003 66.8202 56.2343Z" fill="white"/>
<path d="M83.2775 51.9721L82.5531 54.6334H92.2357L92.9601 51.9823L83.2775 51.9721ZM81.1859 50.2489C81.3152 49.7731 81.6314 49.5352 82.1348 49.5352H93.358C94.8409 49.5352 95.5823 50.113 95.5823 51.2686C95.5823 51.5677 95.5313 51.9076 95.4292 52.2882L94.8681 54.3275C94.3783 56.1629 93.1982 57.0806 91.3277 57.0806H81.9001L81.2675 59.4258C81.1451 59.9016 80.8288 60.1396 80.3187 60.1396H79.2984C78.8903 60.1396 78.6862 59.9832 78.6862 59.6705C78.6862 59.6025 78.6964 59.521 78.7168 59.4258L81.1859 50.2489Z" fill="white"/>
<path d="M98.4595 58.1003L96.5414 60.1396H93.6641L102.143 51.1768C103.156 50.0824 104.139 49.5352 105.091 49.5352C106.044 49.5352 106.741 50.0824 107.183 51.1768L110.846 60.1396H107.969L107.132 58.1003H98.4595ZM106.132 55.6531L104.52 51.6968L100.786 55.6531H106.132Z" fill="white"/>
<path d="M114.835 56.061L113.927 59.4258C113.805 59.9016 113.488 60.1396 112.978 60.1396H111.958C111.55 60.1396 111.346 59.9832 111.346 59.6705C111.346 59.6025 111.356 59.521 111.376 59.4258L113.886 50.045H113.897C113.985 49.7051 114.284 49.5352 114.794 49.5352H115.815C116.223 49.5352 116.427 49.6915 116.427 50.0042C116.427 50.0722 116.417 50.1538 116.396 50.2489L115.488 53.6138H125.181L126.14 50.045H126.15C126.239 49.7051 126.538 49.5352 127.048 49.5352H128.068C128.477 49.5352 128.681 49.6915 128.681 50.0042C128.681 50.0722 128.67 50.1538 128.65 50.2489L126.181 59.4258C126.058 59.9016 125.742 60.1396 125.232 60.1396H124.212C123.804 60.1396 123.6 59.9832 123.6 59.6705C123.6 59.6025 123.61 59.521 123.63 59.4258L124.538 56.061H114.835Z" fill="white"/>
<path fill-rule="evenodd" clip-rule="evenodd" d="M90.2325 23.2463C90.2325 32.2966 79.318 39.6332 65.8543 39.6332C52.3906 39.6332 41.4761 32.2966 41.4761 23.2463C41.4761 14.1961 52.3906 6.85938 65.8543 6.85938C79.318 6.85938 90.2325 14.1961 90.2325 23.2463ZM80.2718 33.4547H76.0685L66.0696 27.4601C65.7945 27.3015 65.6093 27.2222 65.5141 27.2222C65.4929 27.2222 65.4771 27.2328 65.4665 27.2539C65.4665 27.2857 65.4771 27.3279 65.4982 27.3808L64.165 32.3446C63.9746 33.0847 63.4826 33.4547 62.689 33.4547H61.1019C60.467 33.4547 60.1496 33.2115 60.1496 32.7252C60.1496 32.6195 60.1655 32.4926 60.1972 32.3446L61.2538 28.4064H45.769C46.7663 29.9273 48.2151 31.3612 50.1007 32.6288C54.0173 35.2614 59.5791 36.9759 65.8543 36.9759C71.4465 36.9759 76.4722 35.6143 80.2718 33.4547ZM50.8026 13.4128C54.6684 11.037 59.9451 9.51671 65.8543 9.51671C72.1295 9.51671 77.6913 11.2312 81.6079 13.8638C83.0215 14.8141 84.1896 15.8578 85.1061 16.9616H80.4807L67.2758 22.9562C66.916 23.1148 66.6886 23.1941 66.5933 23.1941C66.5827 23.1941 66.5775 23.1888 66.5775 23.1783V23.1624C66.5775 23.1307 66.6092 23.0884 66.6727 23.0355L67.99 18.0876C68.0323 17.9396 68.0535 17.8074 68.0535 17.6911C68.0535 17.2154 67.7361 16.9775 67.1012 16.9775H65.5141C64.7311 16.9775 64.2338 17.3475 64.0222 18.0876L63.7292 19.1796H47.7086L48.329 16.8728H64.5754C65.2872 16.8728 65.7345 16.5364 65.9172 15.8637L66.3212 14.4075C66.3597 14.273 66.3789 14.1528 66.3789 14.0471C66.3789 13.6242 66.0952 13.4128 65.5276 13.4128H50.8026ZM85.9114 18.0433L70.3707 25.2082L82.025 32.3406C85.6845 29.7427 87.5731 26.4964 87.5731 23.2463C87.5731 21.4761 87.0128 19.7071 85.9114 18.0433ZM46.7996 22.6396L46.1792 24.9608L62.182 24.9466L62.8009 22.6396H46.7996Z" fill="white"/>
</svg>
