<svg width="24" height="9" viewBox="0 0 24 9" fill="none" xmlns="http://www.w3.org/2000/svg">
<path d="M1.902 8.84772V5.99997L0 0.897718H0.957L2.355 4.83597L3.969 0.0742188H4.848L2.77725 6.03147V8.84847L1.902 8.84772ZM7.539 8.84772H6.80475C6.76797 8.70119 6.74289 8.55197 6.72975 8.40147H6.67575C6.42975 8.71422 6.1125 8.92572 5.6205 8.92572C4.82325 8.92572 4.2765 8.32347 4.2765 7.22247C4.2765 6.02247 4.89075 5.26572 6.4605 5.26572H6.58125V4.93347C6.58125 4.19847 6.33525 3.88647 5.847 3.88647C5.40075 3.88647 5.022 4.12047 4.73325 4.37472L4.56525 3.60897C4.82325 3.39822 5.3355 3.16422 5.901 3.16422C6.894 3.16422 7.437 3.58647 7.437 4.94547V7.57872C7.437 8.11347 7.491 8.58297 7.53375 8.84847L7.539 8.84772ZM6.58575 5.92572H6.48375C5.4015 5.92572 5.172 6.40197 5.172 7.12497C5.172 7.76997 5.38275 8.19072 5.82375 8.19072C6.1245 8.19072 6.426 7.99197 6.582 7.74597L6.58575 5.92572ZM9.387 8.84772H8.52V3.22647H9.387V3.71847H9.441C9.59775 3.50772 10.02 3.16347 10.5428 3.16347C11.277 3.16347 11.664 3.57372 11.664 4.42947V8.84772H10.785V4.50747C10.785 4.08522 10.5982 3.93747 10.2622 3.93747C9.8985 3.93747 9.59025 4.21872 9.387 4.49547V8.84772ZM12.5228 6.25797C12.5228 4.17597 13.3005 3.16422 14.4218 3.16422C14.691 3.16422 14.9685 3.25422 15.1365 3.37497V0.897718H16.0035V8.84772H15.3585L15.2887 8.40147H15.234C14.9917 8.71422 14.6798 8.92572 14.223 8.92572C13.1213 8.92572 12.5228 7.99197 12.5228 6.25797ZM15.1373 4.14072C14.961 3.96447 14.7705 3.87447 14.4802 3.87447C13.7812 3.87447 13.4452 4.93347 13.4452 6.07722C13.4452 7.39047 13.6912 8.18997 14.328 8.18997C14.7622 8.18997 14.9918 7.97922 15.1373 7.75722V4.14072ZM18.7418 8.92572C17.586 8.92572 16.8705 8.00397 16.8705 6.28047C16.8705 4.47672 17.3708 3.16347 18.5618 3.16347C19.4955 3.16347 20.1045 3.86247 20.1045 5.76972V6.24597H17.7728C17.7728 7.51572 18.129 8.18022 18.8197 8.18022C19.3088 8.18022 19.668 7.96122 19.887 7.80522L20.0903 8.46897C19.7068 8.77144 19.2309 8.93272 18.7425 8.92572H18.7418ZM17.7847 5.53122H19.2188C19.2188 4.57422 19.062 3.87522 18.5618 3.87522C18.0308 3.87522 17.844 4.53147 17.781 5.53122H17.7847ZM23.8792 3.24222L22.836 5.86722L24 8.84847H23.1022L22.23 6.53547L21.387 8.84847H20.5312L21.699 5.94522L20.6408 3.24222H21.543L22.2698 5.27697L23.0347 3.24222H23.8792Z" fill="#D3D3D3"/>
</svg>
